<svg xmlns="http://www.w3.org/2000/svg" xmlns:xlink="http://www.w3.org/1999/xlink" width="634.007" height="832.839" viewBox="0 0 634.007 832.839"><defs><linearGradient id="a" x1="1" x2="0.269" y2="0.869" gradientUnits="objectBoundingBox"><stop offset="0" stop-color="#f9b233"/><stop offset="0.142" stop-color="#f39200"/><stop offset="0.343" stop-color="#ee6e0e"/><stop offset="0.519" stop-color="#e94e1b"/><stop offset="0.787" stop-color="#e6332a"/><stop offset="1" stop-color="#ed1c24"/><stop offset="1" stop-color="#84021e"/></linearGradient></defs><g transform="translate(-648)"><path d="M648,0,818,725.034s375.667,1.077,368.126,74.966,95.881,0,95.881,0V0Z" fill="url(#a)"/><g transform="translate(717 159.196)"><ellipse cx="52.719" cy="11.984" rx="52.719" ry="11.984" transform="translate(0 490.836)" fill="#e6e6e6"/><path d="M338.951,543.135l2.063,4.635s11.708,16.991,4.475,19.653-11.07-16.115-11.07-16.115l-1.912-2.628Z" transform="translate(-242.411 -218.462)" fill="#a0616a"/><path d="M315.532,421.281l1.924-.885s2.277.885,2.277,4.693-2.8,59.4-2.8,59.4l5.6,30.462-7.7,1.523L302.927,488.3Z" transform="translate(-232.478 -184.376)" fill="#575a89"/><path d="M315.532,421.281l1.924-.885s2.277.885,2.277,4.693-2.8,59.4-2.8,59.4l15.057,26.274-9.8,7.616L302.927,488.3Z" transform="translate(-232.478 -184.376)" fill="#575a89"/><path d="M283.684,542.756s9.1,3.808,8.4,10.662-9.8,143.174-9.8,143.174l2.8,15.231-26.612.762-.7-98.241-18.908,98.241H212.251L231.159,539.71Z" transform="translate(-202.029 -217.511)" fill="#2f2e41"/><path d="M305.3,773.779l6.3,6.854s14.707,3.046,11.205,8.377-39.918-1.523-39.918-1.523l.7-12.185Z" transform="translate(-225.751 -282.514)" fill="#2f2e41"/><path d="M236.77,773.779l6.3,6.854s14.707,3.046,11.205,8.377-39.918-1.523-39.918-1.523l.7-12.185Z" transform="translate(-202.738 -282.514)" fill="#2f2e41"/><ellipse cx="16.808" cy="18.277" rx="16.808" ry="18.277" transform="translate(42.436 172.933)" fill="#a0616a"/><path d="M93.327,279.489l-1.4,31.223L70.216,297l2.8-17.516Z" transform="translate(-23.578 -77.616)" fill="#a0616a"/><path d="M69.162,293.2l20.309,15.993,3.5-11.424,6.3,18.278-3.5,32.747Z" transform="translate(-23.224 -81.422)" fill="#e94e1b"/><path d="M257.934,383.7l20.233,33.481.812-27.992,2.492,2.136a12.99,12.99,0,0,1,4.4,9.864h0l9.8,9.9-3.5,38.078-.7,44.932s4.2,3.808,2.8,6.093-7,7.616-13.306,7.616-45.52-5.331-45.52-8.377,1.4-42.647,1.4-42.647V403.475l16.808-13.708Z" transform="translate(-209.819 -174.186)" fill="#575a89"/><path d="M36.477,463.007l9.1,14.47,3.5-16.754-4.2-3.047Z" transform="translate(-12.249 -127.1)" fill="#a0616a"/><path d="M.155,2.448l41.865-1.1-.04,1.416L.115,3.863Z" transform="matrix(0.346, -0.938, 0.938, 0.346, 52.577, 396.681)" opacity="0.2"/><path d="M266.838,329.951s2.1-11.423,14.006-9.139l-1.4.762s11.205-1.523,9.8,5.331c0,0,9.1,6.093,7,12.947a83.1,83.1,0,0,0-2.8,12.185l-2.1-2.285s-2.1-15.231-14.707-13.708c-9.454,1.142-13.306,6-14.291,9.5a32.57,32.57,0,0,1-1.73,4.786l-.787.188S255.633,333.759,266.838,329.951Z" transform="translate(-217.749 -156.638)" fill="#2f2e41"/><path d="M233.169,409.9l-6.375-.322-1.328,1.083a44.8,44.8,0,0,0-4.2,5.331c-1.4,2.285-19.609,57.879-19.609,57.879a20.937,20.937,0,0,0,1.4,9.9c2.1,5.331,18.908,37.316,18.908,37.316l12.606-8.377-16.808-37.316,11.905-18.277Z" transform="translate(-198.436 -181.372)" fill="#575a89"/><path d="M696.483,210.264H694V136.389c0-23.614-17.6-42.757-39.319-42.757H510.756c-21.715,0-39.319,19.143-39.319,42.757V541.676c0,23.614,17.6,42.757,39.319,42.757H654.685C676.4,584.433,694,565.29,694,541.676V262.85h2.48Z" transform="translate(-289.063 -93.632)" fill="#3f3d56"/><path d="M690.045,136.4V547.411c0,17.9-13.344,32.417-29.81,32.424H513.35c-16.474,0-29.826-14.518-29.828-32.428V136.4c0-17.91,13.359-32.426,29.828-32.424h17.817a16.579,16.579,0,0,0,1.366,14.409,13.91,13.91,0,0,0,11.752,6.819h83.741a13.91,13.91,0,0,0,11.752-6.819,16.579,16.579,0,0,0,1.366-14.409h19.086c16.459,0,29.809,14.511,29.816,32.417Z" transform="translate(-293.12 -96.504)" fill="#e6e6e6"/><rect width="148.18" height="161.139" transform="translate(219.573 253.933)" fill="#fff"/><rect width="83.582" height="6.832" transform="translate(252.291 181.277)" fill="#fff"/><rect width="105.189" height="6.832" transform="translate(241.107 199.028)" fill="#fff"/><rect width="57.681" height="4.715" transform="translate(262.272 269.489)" fill="#e6e6e6"/><rect width="89.072" height="4.715" transform="translate(262.272 283.329)" fill="#e94e1b"/><rect width="72.592" height="4.715" transform="translate(263.198 296.51)" fill="#e6e6e6"/><rect width="42.378" height="4.715" transform="translate(262.272 310.973)" fill="#e6e6e6"/><rect width="63.959" height="4.715" transform="translate(262.272 325.1)" fill="#e94e1b"/><rect width="7.063" height="7.681" transform="translate(235.982 268.006)" fill="#e6e6e6"/><rect width="7.063" height="7.681" transform="translate(235.982 281.846)" fill="#e94e1b"/><rect width="7.063" height="7.681" transform="translate(235.982 295.027)" fill="#e6e6e6"/><rect width="7.063" height="7.681" transform="translate(235.982 309.49)" fill="#e6e6e6"/><rect width="7.063" height="7.681" transform="translate(235.982 323.617)" fill="#e94e1b"/><rect width="57.681" height="4.715" transform="translate(262.272 339.316)" fill="#e6e6e6"/><rect width="89.072" height="4.715" transform="translate(262.272 353.156)" fill="#e94e1b"/><rect width="72.592" height="4.715" transform="translate(263.198 366.337)" fill="#e6e6e6"/><rect width="42.378" height="4.715" transform="translate(262.272 380.8)" fill="#e6e6e6"/><rect width="63.959" height="4.715" transform="translate(262.272 394.927)" fill="#e6e6e6"/><rect width="7.063" height="7.681" transform="translate(235.982 337.832)" fill="#e6e6e6"/><rect width="7.063" height="7.681" transform="translate(235.982 351.673)" fill="#e94e1b"/><rect width="7.063" height="7.681" transform="translate(235.982 364.854)" fill="#e6e6e6"/><rect width="7.063" height="7.681" transform="translate(235.982 379.317)" fill="#e6e6e6"/><rect width="7.063" height="7.681" transform="translate(235.982 393.444)" fill="#e6e6e6"/><ellipse cx="48.311" cy="52.536" rx="48.311" ry="52.536" transform="translate(245.351 55.659)" fill="#fff"/><path d="M626.348,207.756c-13.153,0-23.816,11.6-23.816,25.9s10.663,25.9,23.816,25.9,23.816-11.6,23.816-25.9c-.038-14.286-10.679-25.857-23.816-25.9Zm0,7.77c3.946,0,7.145,3.478,7.145,7.769s-3.2,7.77-7.145,7.77-7.145-3.478-7.145-7.769,3.2-7.755,7.145-7.769Zm0,37.4a17.018,17.018,0,0,1-14.289-8.292c.114-5.18,9.526-8.031,14.289-8.031s14.175,2.851,14.289,8.031a17.047,17.047,0,0,1-14.29,8.292Z" transform="translate(-333.084 -125.325)" fill="#e94e1b"/><ellipse cx="53.763" cy="11.984" rx="53.763" ry="11.984" transform="translate(428.007 484.336)" fill="#e6e6e6"/><path d="M825.078,532.731l-7.061-1.332s-14.431-7.242-15.306-1.757,12.9,10.342,12.9,10.342l14.822-1.724Z" transform="translate(-400.289 -214.145)" fill="#ffb8b8"/><path d="M679.04,364.2l-9.891,48.981-33.02,5.071-1.266,14.45,42.582.123,21.3-42.31Z" transform="translate(-213.184 -101.14)" fill="#575a89"/><path d="M679.04,364.2l-9.891,48.981-33.02,5.071-1.266,14.45,42.582.123,21.3-42.31Z" transform="translate(-213.184 -101.14)" opacity="0.2"/><path d="M813.738,470.849l-5.039-5.541s-7.885-15.006-11.525-11.092,4.982,16.562,4.982,16.562l12.99,7.952Z" transform="translate(-398.142 -193.588)" fill="#ffb8b8"/><path d="M916.7,419.015l6.2-1.644a15.5,15.5,0,0,0,12.374-6.361,18.506,18.506,0,0,0,3.3-14.445h0c.015-12.537-9.319-22.713-20.848-22.728h0c-11.529-.016-20.886,10.135-20.9,22.671h0a19.174,19.174,0,0,0,3.977,17.475A15.735,15.735,0,0,0,916.7,419.015Z" transform="translate(-431.691 -171.446)" fill="#2f2e41"/><path d="M675.283,494.984l5.049,60.125,9.145,59.017,15.356.021-1.981-57.894L694.745,486.1Z" transform="translate(-226.756 -134.995)" fill="#2f2e41"/><path d="M884.5,752.359l-10.245,6.666s-16.383,2.2-13.318,7.775,38.9,2.28,38.9.053-1.007-14.474-3.055-14.477Z" transform="translate(-419.726 -276.565)" fill="#2f2e41"/><path d="M920.58,580.425s-.288,8.6-7.47,21.946l.976,41.193,36.8,51.262L937.56,707.054l-44.981-55.726-11.184-66.813,14.351-15.567Z" transform="translate(-426.724 -225.63)" fill="#2f2e41"/><path d="M973.914,743.218s12.283,2.243,10.229,7.807-7.2,31.163-20.507,27.8c0,0-6.143-.008-4.09-4.459a82.629,82.629,0,0,1,4.1-7.787l.017-14.473Z" transform="translate(-452.825 -274.027)" fill="#2f2e41"/><ellipse cx="15.357" cy="16.699" rx="15.357" ry="16.699" transform="translate(463.007 215.301)" fill="#ffb8b8"/><path d="M722.682,336.62l-.022,18.926-16.38-.022,2.069-18.923Z" transform="translate(-237.165 -93.476)" fill="#ffb8b8"/><path d="M918.2,553.582l-10.162-1.849a86.824,86.824,0,0,0-38.976,1.784l4.6-49.759.6-6.486,1.282-13.89s-4.43-18.3,2.072-24.486c7.937-7.548,14.965-13.557,14.965-13.557l15.516,1.351c8.675,18.809,6.795,42.449.943,67.917Z" transform="translate(-422.581 -191.303)" fill="#575a89"/><path d="M882.145,450.782l-34.2,33.641-29.594-16.713-6.214,8.27,26.142,25.048a11.465,11.465,0,0,0,12.512,1.168l33.349-17.551Z" transform="translate(-403.468 -192.815)" fill="#575a89"/><ellipse cx="9.908" cy="10.774" rx="9.908" ry="10.774" transform="translate(498.099 198.149)" fill="#2f2e41"/><path d="M946.781,370.41a11.158,11.158,0,0,1,3.632-8.327,9.322,9.322,0,0,1,8.225-2.222,9.269,9.269,0,0,0-10.512,1.41,11.329,11.329,0,0,0-3.328,10.935,10.316,10.316,0,0,0,7.663,7.951A10.871,10.871,0,0,1,946.781,370.41Z" transform="translate(-447.916 -167.279)" fill="#2f2e41"/><path d="M919.495,382.295l-13.357-2.674-10.272,7a17.5,17.5,0,0,0-7.178,16.537l10.288-2.836,2.3-6.282h0a17.6,17.6,0,0,0,6,6.339c5.829,3.639,7.18,11.373,7.87,19.714l11.269-6.664,7.18-12.237Z" transform="translate(-429.129 -173.053)" fill="#2f2e41"/><path d="M705.791,390.037l-26.674,30.734.6-6.486Z" transform="translate(-228.044 -108.316)" opacity="0.2"/></g></g></svg>