<svg xmlns="http://www.w3.org/2000/svg" xmlns:xlink="http://www.w3.org/1999/xlink" width="355" height="346.02" viewBox="0 0 355 346.02"><defs><linearGradient id="a" x2="0.674" y2="0.909" gradientUnits="objectBoundingBox"><stop offset="0" stop-color="#f9b233"/><stop offset="0.201" stop-color="#f39200"/><stop offset="0.552" stop-color="#e94e1b"/><stop offset="0.77" stop-color="#e6332a"/><stop offset="0.899" stop-color="#ed1c24"/><stop offset="1" stop-color="#e91b24"/><stop offset="1" stop-color="#84021e"/></linearGradient></defs><g transform="translate(0 -1495.161)"><path d="M1017.333-50.839,900.989,262.041S689.182,265.005,701.115,285.9s-38.781,0-38.781,0V-50.839Z" transform="translate(-662.333 1546)" fill="url(#a)"/><g transform="translate(14.558 1554.799)"><g transform="translate(-0.004 0.256)"><path d="M258.59,629.657l5.571,13.073,2.32-1.442-5.769-13.538" transform="translate(-195.959 -444.192)" fill="#f96440"/><path d="M263.222,636.55l2.541,5.968-2.495,1.027L261.1,638.46Z" transform="translate(-197.861 -450.418)" fill="#463e3b" opacity="0.2"/><path d="M264.336,640.37l-3.478,2.162L254.99,628.76l1.16-.722,5.27,12.374,1.16-.723-5.471-12.836,1.16-.722Z" transform="translate(-193.23 -443.046)" fill="#314e5d"/><path d="M58.711,264.477l53.7-33.392c4.427-2.752,6.169-9.318,3.89-14.664L69.05,105.542c-2.278-5.347-7.715-7.45-12.141-4.7l-53.7,33.383a4.262,4.262,0,0,0-1.373,5.181L54.421,262.819c.805,1.888,2.726,2.631,4.289,1.659Z" transform="translate(-1.119 -70.564)" fill="#e8f0f9"/><path d="M57.793,102.444l-53.7,33.38a3.918,3.918,0,0,0-1.71,3.022,3.275,3.275,0,0,1,.761-.658l53.7-33.383c4.427-2.752,9.863-.649,12.141,4.7l47.253,110.89a12.9,12.9,0,0,1,.5,8.521,12.844,12.844,0,0,0,.446-10.882L69.934,107.142C67.656,101.8,62.22,99.692,57.793,102.444Z" transform="translate(-1.803 -71.696)" fill="#fff"/><path d="M8.663,214.82l-1.419.878a4.264,4.264,0,0,0-1.364,5.186L58.457,344.295c.8,1.89,2.725,2.633,4.289,1.662l1.419-.878Z" transform="translate(-4.184 -152.055)" fill="#bcd9ea"/><path d="M111.893,230.3,58.178,263.68c-1.885,1.169-4.2.274-5.169-2L.421,138.271a5.14,5.14,0,0,1,1.657-6.243l53.7-33.383c4.75-2.936,10.571-.682,13.021,5.043l47.253,110.891C118.484,220.31,116.625,227.335,111.893,230.3ZM2.676,133.43a3.394,3.394,0,0,0-1.092,4.122L54.17,260.959a2.344,2.344,0,0,0,3.413,1.319l53.7-33.389c4.1-2.557,5.716-8.642,3.609-13.6L67.641,104.406c-2.117-4.954-7.155-6.9-11.262-4.359Z" transform="translate(0.004 -68.953)" fill="#314e5d"/><path d="M153.2,238.38l-6.486-7.769-10.436-12.505h0l-.23-.275a2,2,0,0,0-3.2.015l-.228.278h0l-32.162,39.157h0l-.228.292a3.155,3.155,0,0,0,.012,3.87l8.576,10.276,8.346,9.984h0l.242.275a2,2,0,0,0,3.2-.015l32.617-39.728A3.156,3.156,0,0,0,153.2,238.38Z" transform="translate(-75.451 -153.623)" fill="#463e3b" opacity="0.2"/><path d="M8.241,4.132,51.822.025A4.759,4.759,0,0,1,57.1,5.5L55.262,25.642a7.444,7.444,0,0,1-6.377,6.569L5.3,36.318a4.759,4.759,0,0,1-5.278-5.47L1.864,10.7A7.444,7.444,0,0,1,8.241,4.132Z" transform="translate(18.074 98.157) rotate(-40.04)" fill="#fff"/><g transform="translate(24.439 102.321)" opacity="0.2"><path d="M128.736,363.388l-8.9,9.033a2.311,2.311,0,0,1-1.894.725,2.486,2.486,0,0,1-1.763-1.109L101.057,350.3a2.217,2.217,0,0,1-.157-.257,29.776,29.776,0,0,0,9.492.465,22.462,22.462,0,0,1,4.994-.053c4.314.632,8.087,3.99,10.754,8.126a37.39,37.39,0,0,1,2.6,4.809Z" transform="translate(-100.9 -350.04)" fill="#ded6d3"/></g><path d="M115.612,273.744a2.594,2.594,0,0,1-3.565-.878L96.5,250.526a4.052,4.052,0,0,1,.356-4.973l35.47-36a2.594,2.594,0,0,1,2.133-.823,2.79,2.79,0,0,1,1.984,1.253l15.544,22.337a4.052,4.052,0,0,1-.356,4.973l-35.475,36a2.988,2.988,0,0,1-.547.448Zm17.855-63.212a1.624,1.624,0,0,0-.3.243L97.7,246.767a2.241,2.241,0,0,0-.2,2.747l15.554,22.337a1.432,1.432,0,0,0,2.274.237l35.458-36a2.241,2.241,0,0,0,.2-2.747L135.441,211a1.434,1.434,0,0,0-1.974-.48Z" transform="translate(-72.609 -147.741)" fill="#314e5d"/><path d="M177.874,123.358a2.707,2.707,0,0,0-3.943-1.527l-2.139,1.331a3.85,3.85,0,0,0-1.453,4.157,4.09,4.09,0,0,0,.317,1.416l54.408,127.7a3.153,3.153,0,0,0,1.714,1.753,2.478,2.478,0,0,0,2.238-.229l2.139-1.331a5.28,5.28,0,0,0,1.143-5.573Z" transform="translate(-128.987 -85.99)" fill="#463e3b" opacity="0.2"/><path d="M14.522.013c2.38-.193,4.153,1.8,3.96,4.459L8.633,140.12a5.525,5.525,0,0,1-4.658,5.157c-2.38.193-4.153-1.8-3.96-4.459L9.864,5.17A5.525,5.525,0,0,1,14.522.013Z" transform="matrix(0.889, -0.458, 0.458, 0.889, 33.078, 41.241)" fill="#938d35"/><path d="M192.295,118.51l56.788,133.269a.742.742,0,0,1-.087.059l-1.071.667-56.8-133.286.894-.556Q192.154,118.58,192.295,118.51Z" transform="translate(-144.837 -83.918)" fill="#dae23b"/><path d="M10.548.037,11,0,.452,145.27,0,145.306Z" transform="matrix(0.889, -0.458, 0.458, 0.889, 34.064, 40.898)" fill="#463e3b"/><path d="M10.548.037,11,0,.452,145.27,0,145.306Z" transform="matrix(0.889, -0.458, 0.458, 0.889, 35.421, 40.645)" fill="#463e3b"/><path d="M10.548.037,11,0,.452,145.27,0,145.306Z" transform="matrix(0.889, -0.458, 0.458, 0.889, 36.578, 39.923)" fill="#463e3b"/><path d="M10.548.037,11,0,.452,145.27,0,145.306Z" transform="matrix(0.889, -0.458, 0.458, 0.889, 37.739, 39.203)" fill="#463e3b"/><path d="M10.548.037,11,0,.452,145.27,0,145.306Z" transform="matrix(0.889, -0.458, 0.458, 0.889, 38.9, 38.484)" fill="#463e3b"/><path d="M237.7,249.269l-2.139,1.331c-1.758,1.09-3.914.255-4.82-1.866l-54.427-127.7a4.793,4.793,0,0,1,1.545-5.821l2.139-1.331c1.758-1.09,3.914-.255,4.82,1.866L239.229,243.46A4.8,4.8,0,0,1,237.7,249.269ZM178.452,116.615a3.046,3.046,0,0,0-.983,3.692l54.415,127.708a2.1,2.1,0,0,0,3.064,1.185l2.139-1.331a3.047,3.047,0,0,0,.981-3.7l-54.413-127.7a2.1,2.1,0,0,0-3.064-1.185Z" transform="translate(-133.307 -80.306)" fill="#314e5d"/><rect width="122.362" height="202.003" rx="25.33" transform="translate(78.382 0.855)" fill="#1dcdff"/><path d="M434.412,435.39v57.476c0,6.05-2.375,10.952-5.3,10.952H328.925c-2.93,0-5.3-4.9-5.3-10.952V459.623c6.754,9.159,14.443,15.338,22.329,19.176,9.522,4.641,19.353,5.994,29.134,6.193,11.693.241,23.588-1.21,34.6-9.339C419.773,468.2,429.129,454.495,434.412,435.39Z" transform="translate(-233.668 -308.102)" fill="#1ab5e1"/><path d="M362.774,1.453c-10.109,3.5-24.151.123-32.877,12.992-4.142,6.1-5.16,17.935-5.827,27.723l.013-27.394c0-3.51.057-7.34,1.158-10.005C326.6,1.45,328.983,1.2,331.082,1.2,341.392,1.217,352.665-1.092,362.774,1.453Z" transform="translate(-240.152 5.621)" fill="#4ed9ff"/><rect width="122.362" height="202.003" rx="25.33" transform="translate(78.265 1.095)" fill="none" stroke="#314e5d" stroke-miterlimit="10" stroke-width="8"/><rect width="99.345" height="173.933" rx="15.86" transform="translate(89.952 14.168)" fill="#fff"/><path d="M470.124,54.235V87.963H370.9V54.235c0-2.589,1.42-4.675,3.174-4.675h92.889C468.7,49.548,470.124,51.646,470.124,54.235Z" transform="translate(-280.948 -35.091)" fill="#ea4583"/><rect width="99.345" height="175.19" rx="15.86" transform="translate(89.833 13.879)" fill="none" stroke="#314e5d" stroke-miterlimit="10" stroke-width="8"/><rect width="64.895" height="6.775" transform="translate(106.976 36.909)" fill="#fff"/><rect width="31.75" height="1.612" transform="translate(136.703 87.384) rotate(180)" fill="#afe6ff"/><rect width="69.1" height="1.612" transform="translate(174.055 90.93) rotate(180)" fill="#afe6ff"/><rect width="31.75" height="1.612" transform="translate(136.703 94.475) rotate(180)" fill="#afe6ff"/><rect width="69.1" height="1.612" transform="translate(174.055 98.018) rotate(180)" fill="#afe6ff"/><rect width="31.75" height="1.612" transform="translate(136.703 101.566) rotate(180)" fill="#afe6ff"/><rect width="69.1" height="1.612" transform="translate(174.055 105.108) rotate(180)" fill="#afe6ff"/><rect width="23.835" height="3.387" transform="translate(184.371 25.015) rotate(180)" fill="#eea248"/><rect width="23.835" height="3.387" transform="translate(157.249 25.015) rotate(180)" fill="#eea248"/><ellipse cx="2.703" cy="3.265" rx="2.703" ry="3.265" transform="translate(97.64 20.057)" fill="#eea248"/><ellipse cx="6.009" cy="7.258" rx="6.009" ry="7.258" transform="translate(108.458 62.093)" fill="#ea4583"/><rect width="11.417" height="13.79" rx="5.709" transform="translate(159.133 62.818)" fill="#958fee"/><path d="M556.282,217.08a.9.9,0,0,1,1.7,0l2.625,5.491,2.625,5.491a1.383,1.383,0,0,1,0,1.173.951.951,0,0,1-.844.582h-10.5a.951.951,0,0,1-.844-.582,1.383,1.383,0,0,1,0-1.173l2.626-5.491Z" transform="translate(-417.474 -153.227)" fill="#eea248"/><path d="M13.558.027c7.989.519,14.886,8.426,15.4,17.661L35.673,137.2c.519,9.235-5.538,16.3-13.527,15.783S7.26,144.56,6.741,135.325L.031,15.81C-.488,6.575,5.569-.492,13.558.027Z" transform="matrix(0.94, 0.34, -0.34, 0.94, 209.81, 43.672)" fill="#e8f0f9"/><path d="M810.031,172.911,806.1,171.22c2.079.9,3.163,3.658,2.422,6.169L767.808,315.3c-.742,2.511-3.029,3.82-5.108,2.925l3.926,1.691c2.079.895,4.366-.415,5.108-2.925l40.719-137.9a5.756,5.756,0,0,0-.15-3.7A4.382,4.382,0,0,0,810.031,172.911Z" transform="translate(-577.973 -121.209)" fill="#bcd9ea"/><path d="M877.581,156.446,858.5,148.229c-2.079-.895-4.366.415-5.108,2.925l-1.555,5.265c.742-2.511,3.029-3.82,5.108-2.925l19.078,8.217c2.079.9,3.163,3.658,2.422,6.169L880,162.616C880.744,160.1,879.66,157.343,877.581,156.446Z" transform="translate(-645.524 -104.744)" fill="#463e3b" opacity="0.2"/><path d="M.3.091,1.951,0l-.3,4.739L0,4.831Z" transform="translate(227.109 64.17) rotate(-70.37)" fill="#314e5d"/><path d="M.3.091,1.951,0l-.3,4.739L0,4.831Z" transform="translate(225.863 68.385) rotate(-70.37)" fill="#314e5d"/><path d="M.3.091,1.951,0l-.3,4.739L0,4.831Z" transform="translate(224.617 72.6) rotate(-70.37)" fill="#314e5d"/><path d="M.616.092,2.261,0,1.646,9.484,0,9.577Z" transform="matrix(0.34, -0.94, 0.94, 0.34, 219.7, 76.017)" fill="#314e5d"/><path d="M.3.091,1.951,0l-.3,4.739L0,4.831Z" transform="translate(222.853 80.239) rotate(-70.37)" fill="#314e5d"/><path d="M.3.091,1.951,0l-.3,4.739L0,4.831Z" transform="translate(221.61 84.455) rotate(-70.37)" fill="#314e5d"/><path d="M.3.091,1.951,0l-.3,4.739L0,4.831Z" transform="translate(220.366 88.671) rotate(-70.37)" fill="#314e5d"/><path d="M.616.092,2.261,0,1.646,9.484,0,9.577Z" transform="matrix(0.34, -0.94, 0.94, 0.34, 215.405, 92.142)" fill="#314e5d"/><path d="M.3.091,1.951,0l-.3,4.739L0,4.831Z" transform="translate(218.6 96.308) rotate(-70.37)" fill="#314e5d"/><path d="M.3.091,1.951,0l-.3,4.739L0,4.831Z" transform="translate(217.356 100.524) rotate(-70.37)" fill="#314e5d"/><path d="M.3.091,1.951,0l-.3,4.739L0,4.831Z" transform="translate(216.11 104.74) rotate(-70.37)" fill="#314e5d"/><path d="M.609.091,2.255,0,1.646,9.479,0,9.57Z" transform="translate(210.402 107.361) rotate(-70.37)" fill="#314e5d"/><path d="M.3.091,1.951,0l-.3,4.739L0,4.831Z" transform="translate(213.476 112.003) rotate(-70.37)" fill="#314e5d"/><path d="M.3.091,1.951,0l-.3,4.739L0,4.831Z" transform="translate(212.23 116.219) rotate(-70.37)" fill="#314e5d"/><path d="M.3.091,1.951,0l-.3,4.739L0,4.831Z" transform="translate(210.986 120.432) rotate(-70.37)" fill="#314e5d"/><path d="M.616.092,2.261,0,1.646,9.484,0,9.577Z" transform="matrix(0.34, -0.94, 0.94, 0.34, 205.939, 124.018)" fill="#314e5d"/><path d="M.3.091,1.951,0l-.3,4.739L0,4.831Z" transform="translate(208.784 127.885) rotate(-70.37)" fill="#314e5d"/><path d="M.3.091,1.951,0l-.3,4.739L0,4.831Z" transform="translate(207.541 132.098) rotate(-70.37)" fill="#314e5d"/><path d="M.3.091,1.951,0l-.3,4.739L0,4.831Z" transform="translate(206.295 136.314) rotate(-70.37)" fill="#314e5d"/><path d="M.616.092,2.261,0,1.646,9.484,0,9.577Z" transform="matrix(0.34, -0.94, 0.94, 0.34, 201.206, 139.951)" fill="#314e5d"/><path d="M.3.091,1.951,0l-.3,4.739L0,4.831Z" transform="translate(204.53 143.954) rotate(-70.37)" fill="#314e5d"/><path d="M.3.091,1.951,0l-.3,4.739L0,4.831Z" transform="translate(203.287 148.17) rotate(-70.37)" fill="#314e5d"/><path d="M.3.091,1.951,0l-.3,4.739L0,4.831Z" transform="translate(202.042 152.383) rotate(-70.37)" fill="#314e5d"/><path d="M.616.092,2.261,0,1.646,9.484,0,9.577Z" transform="matrix(0.34, -0.94, 0.94, 0.34, 196.908, 156.075)" fill="#314e5d"/><path d="M.3.091,1.951,0l-.3,4.739L0,4.831Z" transform="translate(199.842 159.836) rotate(-70.37)" fill="#314e5d"/><path d="M.3.091,1.951,0l-.3,4.739L0,4.831Z" transform="translate(198.596 164.052) rotate(-70.37)" fill="#314e5d"/><path d="M.3.091,1.951,0l-.3,4.739L0,4.831Z" transform="translate(197.352 168.268) rotate(-70.37)" fill="#314e5d"/><path d="M.609.091,2.255,0,1.646,9.479,0,9.57Z" transform="translate(191.644 170.889) rotate(-70.37)" fill="#314e5d"/><path d="M.3.091,1.951,0l-.3,4.739L0,4.831Z" transform="translate(195.153 175.719) rotate(-70.37)" fill="#314e5d"/><path d="M.3.091,1.951,0l-.3,4.739L0,4.831Z" transform="translate(193.907 179.934) rotate(-70.37)" fill="#314e5d"/><path d="M.3.091,1.951,0l-.3,4.739L0,4.831Z" transform="translate(192.661 184.147) rotate(-70.37)" fill="#314e5d"/><path d="M.609.091,2.255,0,1.646,9.479,0,9.57Z" transform="translate(186.953 186.771) rotate(-70.37)" fill="#314e5d"/><path d="M.061,8.435,152,0l-.061.947L0,9.382Z" transform="translate(165.199 188.67) rotate(-70.37)" fill="#fff"/><path d="M690.148,295.371l-1.308-.565,42.472-143.835a1.342,1.342,0,0,1,1.775-1.018h0Z" transform="translate(-522.002 -106.095)" fill="#fff"/><path d="M.091,8.4,151.48,0l-.091,1.423L0,9.827Z" transform="translate(160.202 186.548) rotate(-70.37)" fill="#fff"/><path d="M.091,8.4,151.48,0l-.091,1.423L0,9.827Z" transform="translate(161.509 187.109) rotate(-70.37)" fill="#fff"/><path d="M2.608,0A2.011,2.011,0,0,1,4.938,2a2.681,2.681,0,0,1-2.6,2.269A2.011,2.011,0,0,1,0,2.273,2.681,2.681,0,0,1,2.608,0Z" transform="translate(178.515 189.46) rotate(-70.37)" fill="#fff"/><path d="M739.136,637.437a3.574,3.574,0,0,1-1.688-4.282c.512-1.745,2.1-2.66,3.544-2.044a3.572,3.572,0,0,1,1.7,4.278C742.174,637.138,740.585,638.055,739.136,637.437Zm1.4-4.739a1.342,1.342,0,0,0-1.777,1.018,1.789,1.789,0,0,0,.843,2.145,1.342,1.342,0,0,0,1.776-1.019A1.789,1.789,0,0,0,740.536,632.7Z" transform="translate(-558.716 -446.434)" fill="#314e5d"/><path d="M2.608,0A2.011,2.011,0,0,1,4.938,2a2.681,2.681,0,0,1-2.6,2.269A2.011,2.011,0,0,1,0,2.273,2.681,2.681,0,0,1,2.608,0Z" transform="translate(217.597 55.441) rotate(-70.37)" fill="#fff"/><path d="M900.486,179.307a3.574,3.574,0,0,1-1.688-4.282c.512-1.745,2.1-2.66,3.544-2.044a3.572,3.572,0,0,1,1.7,4.278C903.524,179.008,901.935,179.925,900.486,179.307Zm1.4-4.742a1.342,1.342,0,0,0-1.776,1.018,1.789,1.789,0,0,0,.843,2.145,1.342,1.342,0,0,0,1.776-1.019A1.789,1.789,0,0,0,901.886,174.565Z" transform="translate(-680.987 -122.319)" fill="#314e5d"/><path d="M709.121,303.141l-20.345-8.776c-2.09-.9-3.179-3.681-2.436-6.207l41.174-139.426c.749-2.524,3.048-3.84,5.139-2.943L753,154.564c2.09.9,3.179,3.681,2.436,6.207L714.261,300.2C713.512,302.722,711.213,304.038,709.121,303.141Zm23.065-155.758a2.544,2.544,0,0,0-3.364,1.928L687.648,288.737a3.391,3.391,0,0,0,1.6,4.054l20.345,8.776a2.544,2.544,0,0,0,3.364-1.928l41.174-139.426a3.392,3.392,0,0,0-1.6-4.063Z" transform="translate(-519.931 -103.017)" fill="#314e5d"/><path d="M856.8,293.813a28.914,28.914,0,0,1,1.037-6.517,15.849,15.849,0,0,1,2.081-4.754,6.914,6.914,0,0,1,3.761-2.9l.1.547a6.46,6.46,0,0,0-3.5,2.715,15.27,15.27,0,0,0-2,4.575,28.254,28.254,0,0,0-1.012,6.368Z" transform="translate(-649.282 -197.913)" opacity="0.1"/><path d="M793.3,294.652a6.043,6.043,0,0,1-.94-.509l.223-.491c3.085,2.048,7.348.611,9.124-3.054a14.386,14.386,0,0,0,1.15-4.1,20.518,20.518,0,0,0-.111-7.787,9.884,9.884,0,0,0-3.761-6.044l.223-.491a10.414,10.414,0,0,1,3.984,6.383,21.151,21.151,0,0,1,.121,8.042,14.79,14.79,0,0,1-1.211,4.28C800.384,294.421,796.473,296,793.3,294.652Z" transform="translate(-600.45 -192.635)" opacity="0.1"/><path d="M799.77,299.981l.044-.556c1.87.219,3.766-1.539,4.226-3.917a7.549,7.549,0,0,0-1.9-6.374l.3-.424a8.169,8.169,0,0,1,2.051,6.927C803.982,298.276,801.865,300.227,799.77,299.981Z" transform="translate(-606.065 -204.33)" opacity="0.1"/><path d="M724.29,458.044a3.609,3.609,0,0,1-.93-.585l.269-.456a3.253,3.253,0,0,0,3.236.57c2.7-.837,5.585-4.245,7.351-8.682a46.672,46.672,0,0,0,2.136-7.43,57.044,57.044,0,0,0,1.5-13.345c-.131-4.388-1.165-7.74-2.836-9.179l.269-.456c1.79,1.542,2.892,5.046,3.03,9.615A57.821,57.821,0,0,1,736.8,441.6a47.463,47.463,0,0,1-2.165,7.533c-1.824,4.578-4.822,8.112-7.653,8.989A3.819,3.819,0,0,1,724.29,458.044Z" transform="translate(-548.161 -296.139)" opacity="0.1"/><path d="M736.576,468.712l-.036-.559c1.988-.193,4.519-3.937,5.525-8.191.935-3.943.637-8.153-.741-10.475l.375-.328c1.48,2.492,1.8,6.792.811,10.955C741.437,464.643,738.775,468.493,736.576,468.712Z" transform="translate(-558.149 -317.844)" opacity="0.1"/><path d="M854.436,406.393a10.414,10.414,0,0,1-3.984-6.383,21.15,21.15,0,0,1-.121-8.042,14.8,14.8,0,0,1,1.211-4.28c1.9-3.914,6.45-5.441,9.746-3.262l-.223.491c-3.083-2.048-7.348-.611-9.124,3.054a14.378,14.378,0,0,0-1.15,4.1,20.515,20.515,0,0,0,.111,7.787,9.884,9.884,0,0,0,3.761,6.044Z" transform="translate(-644.136 -271.342)" opacity="0.1"/><path d="M871.3,418.034a8.169,8.169,0,0,1-2.052-6.927c.511-2.633,2.628-4.593,4.723-4.347l-.043.556c-1.87-.219-3.766,1.539-4.227,3.917a7.549,7.549,0,0,0,1.9,6.374Z" transform="translate(-658.623 -287.832)" opacity="0.1"/><path d="M779.71,571.874c-2.643-1.755-4.7-5.034-5.634-9.024a30.025,30.025,0,0,1-.169-11.408,21.611,21.611,0,0,1,1.7-6.061c2.679-5.526,9.107-7.679,13.759-4.6l-.223.491c-4.44-2.925-10.579-.878-13.137,4.388a20.605,20.605,0,0,0-1.652,5.88,29.38,29.38,0,0,0,.16,11.151c.9,3.847,2.875,7.021,5.408,8.685Z" transform="translate(-586.119 -381.665)" opacity="0.1"/><path d="M803.758,588.485a11.553,11.553,0,0,1-2.892-9.756c.727-3.709,3.689-6.436,6.627-6.1l-.043.556c-2.715-.319-5.464,2.229-6.13,5.675a10.872,10.872,0,0,0,2.742,9.2Z" transform="translate(-606.762 -405.173)" opacity="0.1"/><path d="M.091,8.069,145.448,0l-.091,1.423L0,9.492Z" transform="translate(163.85 184.531) rotate(-70.37)" fill="#314e5d"/><path d="M790.385,425.432a15.728,15.728,0,0,1-.213-11.294c.242-.919.511-1.866.69-2.811a17.285,17.285,0,0,0-4.033-14.682l.3-.424a17.933,17.933,0,0,1,4.183,15.232c-.184.971-.446,1.934-.7,2.864a15.119,15.119,0,0,0,.208,10.929Z" transform="translate(-596.259 -280.391)" opacity="0.1"/><path d="M862.445,189.232a15.728,15.728,0,0,1-.213-11.294c.242-.919.511-1.866.69-2.811a17.284,17.284,0,0,0-4.033-14.682l.3-.424a17.933,17.933,0,0,1,4.183,15.232c-.184.971-.446,1.934-.7,2.864a20.158,20.158,0,0,0-.918,4.9,20.043,20.043,0,0,0,1.126,6.026Z" transform="translate(-650.866 -113.285)" opacity="0.1"/><path d="M916.1,226.642a15.729,15.729,0,0,1-.213-11.294c.242-.919.511-1.866.69-2.811a17.284,17.284,0,0,0-4.033-14.682l.3-.424a17.933,17.933,0,0,1,4.183,15.232c-.184.971-.446,1.934-.7,2.864a15.121,15.121,0,0,0,.208,10.929Z" transform="translate(-691.522 -139.752)" opacity="0.1"/><path d="M717.465,592.665l-.39-.292c.879-1.67.785-3.8.693-5.85-.024-.535-.048-1.071-.056-1.6a47.957,47.957,0,0,1,.322-5.382c.341-3.428.666-6.67-.371-9.689a17.726,17.726,0,0,0-3.454-5.5l.325-.4a18.152,18.152,0,0,1,3.558,5.681c1.085,3.156.727,6.62.4,9.969a47.42,47.42,0,0,0-.332,5.3c0,.518.032,1.044.053,1.574C718.325,588.629,718.424,590.843,717.465,592.665Z" transform="translate(-541.228 -399.062)" opacity="0.1"/></g></g></g></svg>