<svg xmlns="http://www.w3.org/2000/svg" xmlns:xlink="http://www.w3.org/1999/xlink" width="340.446" height="379.839" viewBox="0 0 340.446 379.839"><defs><linearGradient id="a" x1="1" x2="0.269" y2="0.869" gradientUnits="objectBoundingBox"><stop offset="0" stop-color="#f9b233"/><stop offset="0.142" stop-color="#f39200"/><stop offset="0.343" stop-color="#ee6e0e"/><stop offset="0.519" stop-color="#e94e1b"/><stop offset="0.787" stop-color="#e6332a"/><stop offset="1" stop-color="#ed1c24"/><stop offset="1" stop-color="#84021e"/></linearGradient></defs><g transform="translate(-34.554 -444)"><path d="M648,0l88.7,330.672s196.011.491,192.076,34.19,50.028,0,50.028,0V0Z" transform="translate(-603.804 444)" fill="url(#a)"/><g transform="translate(34.554 463)"><ellipse cx="30.112" cy="6.845" rx="30.112" ry="6.845" transform="translate(0 280.361)" fill="#e6e6e6"/><path d="M336.188,543.135l1.178,2.648s6.687,9.705,2.556,11.225-6.323-9.2-6.323-9.2l-1.092-1.5Z" transform="translate(-281.045 -357.685)" fill="#a0616a"/><path d="M310.127,420.9l1.1-.506s1.3.506,1.3,2.681-1.6,33.93-1.6,33.93l3.2,17.4-4.4.87-6.8-16.095Z" transform="translate(-262.687 -285.584)" fill="#575a89"/><path d="M310.127,420.9l1.1-.506s1.3.506,1.3,2.681-1.6,33.93-1.6,33.93l8.6,15.007-5.6,4.35-11-17.182Z" transform="translate(-262.687 -285.584)" fill="#575a89"/><path d="M253.053,541.45s5.2,2.175,4.8,6.09-5.6,81.779-5.6,81.779l1.6,8.7-15.2.435-.4-56.114-10.8,56.114h-15.2l10.8-98.744Z" transform="translate(-206.413 -355.673)" fill="#2f2e41"/><path d="M295.694,773.779l3.6,3.915s8.4,1.74,6.4,4.785-22.8-.87-22.8-.87l.4-6.96Z" transform="translate(-250.254 -493.173)" fill="#2f2e41"/><path d="M227.161,773.779l3.6,3.915s8.4,1.74,6.4,4.785-22.8-.87-22.8-.87l.4-6.96Z" transform="translate(-207.722 -493.173)" fill="#2f2e41"/><ellipse cx="9.6" cy="10.44" rx="9.6" ry="10.44" transform="translate(24.239 98.777)" fill="#a0616a"/><path d="M83.417,279.489l-.8,17.834-12.4-7.83,1.6-10Z" transform="translate(-43.577 -164.181)" fill="#a0616a"/><path d="M69.162,293.2l11.6,9.135,2-6.525,3.6,10.44-2,18.7Z" transform="translate(-42.923 -172.233)" fill="#e94e1b"/><path d="M248.292,383.7l11.557,19.124.464-15.989,1.423,1.22a7.42,7.42,0,0,1,2.513,5.634h0l5.6,5.655-2,21.75-.4,25.665s2.4,2.175,1.6,3.48-4,4.35-7.6,4.35-26-3.045-26-4.785.8-24.36.8-24.36V395l9.6-7.83Z" transform="translate(-220.809 -264.029)" fill="#575a89"/><path d="M36.477,460.721l5.2,8.265,2-9.57-2.4-1.74Z" transform="translate(-22.638 -268.854)" fill="#a0616a"/><path d="M.023.631,23.935,0l-.023.809L0,1.439Z" transform="matrix(0.346, -0.938, 0.938, 0.346, 30.774, 226.784)" opacity="0.2"/><path d="M263.5,325.9s1.2-6.525,8-5.22l-.8.435s6.4-.87,5.6,3.045c0,0,5.2,3.48,4,7.395a47.468,47.468,0,0,0-1.6,6.96l-1.2-1.3s-1.2-8.7-8.4-7.83c-5.4.653-7.6,3.426-8.163,5.424a18.608,18.608,0,0,1-.988,2.734l-.449.107S257.1,328.078,263.5,325.9Z" transform="translate(-235.465 -226.908)" fill="#2f2e41"/><path d="M219.61,409.761l-3.641-.184-.759.619a25.591,25.591,0,0,0-2.4,3.045c-.8,1.3-11.2,33.06-11.2,33.06a11.959,11.959,0,0,0,.8,5.655c1.2,3.045,10.8,21.315,10.8,21.315l7.2-4.785-9.6-21.315,6.8-10.44Z" transform="translate(-199.771 -279.229)" fill="#575a89"/><path d="M599.981,160.251h-1.417v-42.2c0-13.488-10.055-24.423-22.458-24.422H493.9c-12.4,0-22.459,10.934-22.459,24.423v231.5c0,13.488,10.055,24.423,22.458,24.422h82.211c12.4,0,22.458-10.934,22.458-24.423V190.287h1.416Z" transform="translate(-367.267 -93.632)" fill="#3f3d56"/><path d="M601.486,122.494V357.261c0,10.224-7.622,18.516-17.027,18.52h-83.9c-9.41,0-17.036-8.292-17.038-18.522V122.494c0-10.23,7.63-18.521,17.038-18.52h10.177a9.47,9.47,0,0,0,.78,8.23,7.945,7.945,0,0,0,6.712,3.9h47.832a7.945,7.945,0,0,0,6.712-3.9,9.47,9.47,0,0,0,.78-8.23h10.9c9.4,0,17.027,8.289,17.031,18.516Z" transform="translate(-374.766 -99.707)" fill="#e6e6e6"/><rect width="84.639" height="92.041" transform="translate(125.418 145.044)" fill="#fff"/><rect width="47.741" height="3.902" transform="translate(144.106 103.543)" fill="#fff"/><rect width="60.083" height="3.902" transform="translate(137.718 113.683)" fill="#fff"/><rect width="32.947" height="2.693" transform="translate(149.807 153.929)" fill="#e6e6e6"/><rect width="50.877" height="2.693" transform="translate(149.807 161.835)" fill="#e94e1b"/><rect width="41.464" height="2.693" transform="translate(150.336 169.364)" fill="#e6e6e6"/><rect width="24.206" height="2.693" transform="translate(149.807 177.625)" fill="#e6e6e6"/><rect width="36.533" height="2.693" transform="translate(149.807 185.694)" fill="#e94e1b"/><rect width="4.034" height="4.387" transform="translate(134.79 153.082)" fill="#e6e6e6"/><rect width="4.034" height="4.387" transform="translate(134.79 160.987)" fill="#e94e1b"/><rect width="4.034" height="4.387" transform="translate(134.79 168.516)" fill="#e6e6e6"/><rect width="4.034" height="4.387" transform="translate(134.79 176.778)" fill="#e6e6e6"/><rect width="4.034" height="4.387" transform="translate(134.79 184.847)" fill="#e94e1b"/><rect width="32.947" height="2.693" transform="translate(149.807 193.814)" fill="#e6e6e6"/><rect width="50.877" height="2.693" transform="translate(149.807 201.719)" fill="#e94e1b"/><rect width="41.464" height="2.693" transform="translate(150.336 209.248)" fill="#e6e6e6"/><rect width="24.206" height="2.693" transform="translate(149.807 217.509)" fill="#e6e6e6"/><rect width="36.533" height="2.693" transform="translate(149.807 225.578)" fill="#e6e6e6"/><rect width="4.034" height="4.387" transform="translate(134.79 192.966)" fill="#e6e6e6"/><rect width="4.034" height="4.387" transform="translate(134.79 200.872)" fill="#e94e1b"/><rect width="4.034" height="4.387" transform="translate(134.79 208.401)" fill="#e6e6e6"/><rect width="4.034" height="4.387" transform="translate(134.79 216.662)" fill="#e6e6e6"/><rect width="4.034" height="4.387" transform="translate(134.79 224.731)" fill="#e6e6e6"/><ellipse cx="27.595" cy="30.008" rx="27.595" ry="30.008" transform="translate(140.142 31.792)" fill="#fff"/><path d="M616.135,207.756c-7.513,0-13.6,6.623-13.6,14.793s6.09,14.793,13.6,14.793,13.6-6.623,13.6-14.793C629.717,214.389,623.639,207.78,616.135,207.756Zm0,4.438a4.453,4.453,0,1,1-4.081,4.438,4.271,4.271,0,0,1,4.081-4.438Zm0,21.364a9.721,9.721,0,0,1-8.162-4.737c.065-2.959,5.441-4.587,8.162-4.587s8.1,1.629,8.162,4.587a9.737,9.737,0,0,1-8.162,4.737Z" transform="translate(-448.626 -160.672)" fill="#e94e1b"/><ellipse cx="30.709" cy="6.845" rx="30.709" ry="6.845" transform="translate(244.474 276.648)" fill="#e6e6e6"/><path d="M815.47,530.526l-4.033-.761s-8.243-4.136-8.742-1,7.367,5.907,7.367,5.907l8.466-.985Z" transform="translate(-572.835 -348.553)" fill="#ffb8b8"/><path d="M660.1,364.2l-5.649,27.977-18.86,2.9-.723,8.254,24.322.07,12.164-24.167Z" transform="translate(-394.004 -213.942)" fill="#575a89"/><path d="M660.1,364.2l-5.649,27.977-18.86,2.9-.723,8.254,24.322.07,12.164-24.167Z" transform="translate(-394.004 -213.942)" opacity="0.2"/><path d="M806.25,463.438l-2.878-3.165s-4.5-8.571-6.583-6.336,2.846,9.46,2.846,9.46l7.419,4.542Z" transform="translate(-568.866 -305.069)" fill="#ffb8b8"/><path d="M907.9,399.642l3.543-.939a8.855,8.855,0,0,0,7.068-3.634,10.57,10.57,0,0,0,1.885-8.251h0c.008-7.161-5.323-12.973-11.908-12.982h0c-6.585-.009-11.93,5.789-11.938,12.95h0a10.952,10.952,0,0,0,2.271,9.982A8.988,8.988,0,0,0,907.9,399.642Z" transform="translate(-630.871 -258.233)" fill="#2f2e41"/><path d="M675.283,491.176l2.884,34.343,5.224,33.71,8.771.012-1.131-33.068L686.4,486.1Z" transform="translate(-419.089 -285.554)" fill="#2f2e41"/><path d="M874.23,752.359l-5.852,3.807s-9.358,1.259-7.607,4.441,22.22,1.3,22.221.03-.575-8.268-1.745-8.269Z" transform="translate(-608.757 -480.59)" fill="#2f2e41"/><path d="M903.777,575.5s-.165,4.91-4.267,12.535l.558,23.529,21.018,29.28-7.61,6.984L887.783,616l-6.388-38.163,8.2-8.891Z" transform="translate(-621.691 -372.849)" fill="#2f2e41"/><path d="M967.572,743.218s7.016,1.281,5.842,4.459-4.114,17.8-11.714,15.882c0,0-3.509,0-2.336-2.547a47.214,47.214,0,0,1,2.344-4.448l.009-8.267Z" transform="translate(-669.932 -475.221)" fill="#2f2e41"/><ellipse cx="8.771" cy="9.539" rx="8.771" ry="9.539" transform="translate(264.465 122.978)" fill="#ffb8b8"/><path d="M715.649,336.611l-.012,10.81-9.356-.013,1.182-10.809Z" transform="translate(-438.326 -197.73)" fill="#ffb8b8"/><path d="M897.125,507.166l-5.8-1.056a49.593,49.593,0,0,0-22.263,1.019l2.625-28.422.341-3.7.732-7.934s-2.531-10.454,1.184-13.986c4.534-4.311,8.548-7.744,8.548-7.744l8.862.771c4.955,10.743,3.881,24.246.539,38.794Z" transform="translate(-614.035 -300.236)" fill="#575a89"/><path d="M852.125,450.782,832.591,470l-16.9-9.546-3.549,4.724,14.932,14.307a6.549,6.549,0,0,0,7.147.667l19.049-10.025Z" transform="translate(-578.71 -303.434)" fill="#575a89"/><ellipse cx="5.659" cy="6.154" rx="5.659" ry="6.154" transform="translate(284.509 113.181)" fill="#2f2e41"/><path d="M945.8,365.444a6.374,6.374,0,0,1,2.075-4.756,5.325,5.325,0,0,1,4.7-1.269,5.294,5.294,0,0,0-6,.806,6.471,6.471,0,0,0-1.9,6.246,5.893,5.893,0,0,0,4.377,4.542A6.21,6.21,0,0,1,945.8,365.444Z" transform="translate(-660.858 -249.417)" fill="#2f2e41"/><path d="M906.228,381.148,898.6,379.62l-5.867,4a10,10,0,0,0-4.1,9.446l5.876-1.62,1.316-3.588h0a10.051,10.051,0,0,0,3.43,3.621c3.329,2.078,4.1,6.5,4.495,11.26l6.437-3.807,4.1-6.989Z" transform="translate(-626.137 -261.631)" fill="#2f2e41"/><path d="M694.353,390.037l-15.236,17.555.341-3.7Z" transform="translate(-421.469 -229.121)" opacity="0.2"/></g></g></svg>