<svg xmlns="http://www.w3.org/2000/svg" width="588.606" height="622.153" viewBox="0 0 588.606 622.153"><g transform="translate(0 0)"><ellipse cx="57.943" cy="14.483" rx="57.943" ry="14.483" transform="translate(0 593.187)" fill="#e6e6e6"/><path d="M339.59,543.135l2.267,5.6s12.868,20.534,4.919,23.751-12.167-19.475-12.167-19.475l-2.1-3.176Z" transform="translate(-233.482 -150.76)" fill="#a0616a"/><path d="M316.781,421.465l2.115-1.07s2.5,1.07,2.5,5.672-3.079,71.788-3.079,71.788l6.158,36.815-8.467,1.841-13.085-34.053Z" transform="translate(-225.496 -135.161)" fill="#575a89"/><path d="M316.781,421.465l2.115-1.07s2.5,1.07,2.5,5.672-3.079,71.788-3.079,71.788l16.549,31.752-10.776,9.2-21.167-36.354Z" transform="translate(-225.496 -135.161)" fill="#575a89"/><path d="M290.763,543.391s10.006,4.6,9.237,12.885S289.223,729.3,289.223,729.3l3.079,18.407-29.249.92-.77-118.727L241.5,748.632h-29.25L233.033,539.71Z" transform="translate(-201.016 -150.325)" fill="#2f2e41"/><path d="M307.524,773.779l6.927,8.283s16.164,3.681,12.315,10.124-43.874-1.841-43.874-1.841l.77-14.726Z" transform="translate(-220.088 -180.073)" fill="#2f2e41"/><path d="M238.991,773.779l6.927,8.283s16.164,3.681,12.315,10.124-43.874-1.841-43.874-1.841l.77-14.726Z" transform="translate(-201.586 -180.073)" fill="#2f2e41"/><ellipse cx="18.473" cy="22.089" rx="18.473" ry="22.089" transform="translate(46.642 208.993)" fill="#a0616a"/><path d="M95.617,279.489l-1.54,37.734L70.216,300.657,73.3,279.489Z" transform="translate(-18.956 -35.521)" fill="#a0616a"/><path d="M69.162,293.2l22.322,19.328,3.849-13.806,6.927,22.089-3.849,39.576Z" transform="translate(-18.672 -37.263)" fill="#e94e1b"/><path d="M260.162,383.7,282.4,424.165l.892-33.829,2.739,2.581a16.423,16.423,0,0,1,4.836,11.921h0L301.643,416.8l-3.849,46.018-.77,54.3s4.618,4.6,3.079,7.363-7.7,9.2-14.625,9.2-50.032-6.443-50.032-10.124,1.539-51.54,1.539-51.54V407.6l18.473-16.567Z" transform="translate(-207.279 -130.497)" fill="#575a89"/><path d="M36.477,464.119l10.007,17.487,3.848-20.248-4.618-3.682Z" transform="translate(-9.848 -58.167)" fill="#a0616a"/><path d="M.088,2.6,50.172-.119l-.1,1.576L-.01,4.174Z" transform="matrix(0.346, -0.938, 0.938, 0.346, 57.903, 479.43)" opacity="0.2"/><path d="M267.609,331.92s2.309-13.805,15.394-11.044l-1.539.92s12.315-1.841,10.776,6.443c0,0,10.006,7.363,7.7,15.646a108.97,108.97,0,0,0-3.079,14.726l-2.309-2.761s-2.309-18.407-16.164-16.567c-10.391,1.381-14.625,7.248-15.707,11.476a41.98,41.98,0,0,1-1.9,5.784l-.865.227S255.293,336.522,267.609,331.92Z" transform="translate(-213.654 -122.466)" fill="#2f2e41"/><path d="M236.3,409.966l-7.007-.389-1.46,1.309a53.7,53.7,0,0,0-4.618,6.443c-1.539,2.761-21.552,69.948-21.552,69.948a27.612,27.612,0,0,0,1.539,11.965c2.309,6.443,20.782,45.1,20.782,45.1l13.855-10.124-18.473-45.1,13.085-22.089Z" transform="translate(-198.127 -133.786)" fill="#575a89"/><path d="M718.786,234.585h-2.726V145.3c0-28.538-19.348-51.673-43.215-51.673H514.653c-23.867,0-43.216,23.135-43.215,51.673V635.1c0,28.538,19.348,51.673,43.215,51.673H672.845c23.867,0,43.215-23.135,43.215-51.673V298.136h2.726Z" transform="translate(-270.989 -93.632)" fill="#3f3d56"/><path d="M710.513,143.159V639.878c0,21.632-14.667,39.176-32.764,39.185H516.306c-18.106,0-32.782-17.545-32.785-39.19V143.159c.005-21.645,14.683-39.187,32.785-39.185h19.583a21.791,21.791,0,0,0,1.5,17.413c2.891,5.145,7.732,8.234,12.916,8.241h92.04c5.184-.008,10.025-3.1,12.916-8.241a21.791,21.791,0,0,0,1.5-17.413h20.977c18.091,0,32.763,17.537,32.771,39.177Z" transform="translate(-274.251 -94.946)" fill="#e6e6e6"/><rect width="162.865" height="194.74" transform="translate(241.334 306.884)" fill="#fff"/><rect width="91.866" height="8.256" transform="translate(277.293 219.077)" fill="#fff"/><rect width="115.614" height="8.256" transform="translate(265.002 240.531)" fill="#fff"/><rect width="63.397" height="5.698" transform="translate(288.264 325.684)" fill="#e6e6e6"/><rect width="97.899" height="5.698" transform="translate(288.264 342.41)" fill="#e94e1b"/><rect width="79.786" height="5.698" transform="translate(289.282 358.34)" fill="#e6e6e6"/><rect width="46.578" height="5.698" transform="translate(288.264 375.818)" fill="#e6e6e6"/><rect width="70.298" height="5.698" transform="translate(288.264 392.891)" fill="#e94e1b"/><rect width="7.763" height="9.282" transform="translate(259.368 323.891)" fill="#e6e6e6"/><rect width="7.763" height="9.282" transform="translate(259.368 340.617)" fill="#e94e1b"/><rect width="7.763" height="9.282" transform="translate(259.368 356.547)" fill="#e6e6e6"/><rect width="7.763" height="9.282" transform="translate(259.368 374.026)" fill="#e6e6e6"/><rect width="7.763" height="9.282" transform="translate(259.368 391.099)" fill="#e94e1b"/><rect width="63.397" height="5.698" transform="translate(288.264 410.071)" fill="#e6e6e6"/><rect width="97.899" height="5.698" transform="translate(288.264 426.797)" fill="#e94e1b"/><rect width="79.786" height="5.698" transform="translate(289.282 442.727)" fill="#e6e6e6"/><rect width="46.578" height="5.698" transform="translate(288.264 460.206)" fill="#e6e6e6"/><rect width="70.298" height="5.698" transform="translate(288.264 477.279)" fill="#e6e6e6"/><rect width="7.763" height="9.282" transform="translate(259.368 408.278)" fill="#e6e6e6"/><rect width="7.763" height="9.282" transform="translate(259.368 425.005)" fill="#e94e1b"/><rect width="7.763" height="9.282" transform="translate(259.368 440.934)" fill="#e6e6e6"/><rect width="7.763" height="9.282" transform="translate(259.368 458.414)" fill="#e6e6e6"/><rect width="7.763" height="9.282" transform="translate(259.368 475.486)" fill="#e6e6e6"/><ellipse cx="53.099" cy="63.491" rx="53.099" ry="63.491" transform="translate(269.666 67.266)" fill="#fff"/><path d="M628.708,207.756c-14.456,0-26.176,14.013-26.176,31.3s11.719,31.3,26.176,31.3,26.176-14.013,26.176-31.3c-.042-17.265-11.737-31.249-26.176-31.3Zm0,9.39c4.337,0,7.853,4.2,7.853,9.39s-3.516,9.39-7.853,9.39-7.853-4.2-7.853-9.39,3.522-9.372,7.853-9.389Zm0,45.2c-6.3-.034-12.176-3.785-15.706-10.022.126-6.26,10.47-9.706,15.706-9.706s15.58,3.446,15.706,9.706c-3.534,6.232-9.409,9.981-15.706,10.022Z" transform="translate(-306.38 -108.136)" fill="#e94e1b"/><ellipse cx="59.091" cy="14.483" rx="59.091" ry="14.483" transform="translate(470.424 585.331)" fill="#e6e6e6"/><path d="M827.3,533.8l-7.761-1.61s-15.861-8.752-16.822-2.123,14.175,12.5,14.175,12.5l16.291-2.084Z" transform="translate(-360.412 -148.784)" fill="#ffb8b8"/><path d="M683.418,364.2l-10.871,59.195-36.292,6.129-1.391,17.463,46.8.148L705.072,396Z" transform="translate(-171.394 -46.287)" fill="#575a89"/><path d="M683.418,364.2l-10.871,59.195-36.292,6.129-1.391,17.463,46.8.148L705.072,396Z" transform="translate(-171.394 -46.287)" opacity="0.2"/><path d="M815.468,474.454l-5.538-6.7s-8.667-18.135-12.668-13.4,5.475,20.016,5.475,20.016l14.277,9.61Z" transform="translate(-358.686 -139.376)" fill="#ffb8b8"/><path d="M918.736,428.436l6.818-1.987c5.269.008,10.262-2.814,13.6-7.688a24.11,24.11,0,0,0,3.627-17.457h0c.016-15.151-10.243-27.449-22.914-27.468h0c-12.671-.019-22.956,12.248-22.972,27.4h0a24.917,24.917,0,0,0,4.371,21.119C905.767,427.959,912.422,430.277,918.736,428.436Z" transform="translate(-385.658 -129.243)" fill="#2f2e41"/><path d="M675.283,496.836l5.55,72.663,10.052,71.323,16.878.025-2.177-69.966L696.674,486.1Z" transform="translate(-182.306 -61.78)" fill="#2f2e41"/><path d="M886.871,752.359l-11.261,8.056s-18.006,2.664-14.638,9.4,42.756,2.755,42.758.064-1.107-17.492-3.357-17.5Z" transform="translate(-376.038 -177.351)" fill="#2f2e41"/><path d="M924.464,582.819s-.317,10.388-8.21,26.522l1.073,49.783,40.443,61.951-14.643,14.778-49.439-67.346L881.394,587.76l15.773-18.812Z" transform="translate(-381.665 -154.041)" fill="#2f2e41"/><path d="M975.379,743.218s13.5,2.711,11.242,9.435-7.916,37.661-22.54,33.6c0,0-6.751-.01-4.5-5.389a103.653,103.653,0,0,1,4.511-9.411l.018-17.491Z" transform="translate(-402.65 -176.189)" fill="#2f2e41"/><ellipse cx="16.878" cy="20.182" rx="16.878" ry="20.182" transform="translate(508.893 260.196)" fill="#ffb8b8"/><path d="M724.307,336.624l-.024,22.873-18-.027,2.274-22.869Z" transform="translate(-190.674 -42.779)" fill="#ffb8b8"/><path d="M923.066,576.153,911.9,573.918a87.076,87.076,0,0,0-42.838,2.156l5.052-60.135.657-7.839,1.409-16.786s-4.869-22.119,2.278-29.591c8.724-9.122,16.448-16.384,16.448-16.384l17.053,1.632c9.534,22.731,7.468,51.3,1.037,82.079Z" transform="translate(-378.334 -138.331)" fill="#575a89"/><path d="M889.083,450.782l-37.588,40.657-32.527-20.2-6.829,9.994,28.732,30.271a11.683,11.683,0,0,0,13.752,1.411l36.654-21.21Z" transform="translate(-362.968 -139.023)" fill="#575a89"/><ellipse cx="10.89" cy="13.021" rx="10.89" ry="13.021" transform="translate(547.463 239.468)" fill="#2f2e41"/><path d="M947.006,372.825A14.133,14.133,0,0,1,951,362.762a9.606,9.606,0,0,1,9.04-2.686,9.483,9.483,0,0,0-11.553,1.7A14.569,14.569,0,0,0,944.828,375c1.019,4.88,4.3,8.621,8.422,9.609C949.436,382.456,947,377.866,947.006,372.825Z" transform="translate(-398.702 -127.336)" fill="#2f2e41"/><path d="M922.561,382.852,907.88,379.62l-11.29,8.461c-5.668,4.248-8.749,12.053-7.889,19.985l11.308-3.427,2.532-7.592h0a20.563,20.563,0,0,0,6.6,7.661c6.407,4.4,7.892,13.745,8.65,23.825l12.386-8.054,7.892-14.788Z" transform="translate(-383.598 -129.979)" fill="#2f2e41"/><path d="M708.434,390.037l-29.317,37.142.656-7.839Z" transform="translate(-183.341 -49.571)" opacity="0.2"/></g></svg>