<svg xmlns="http://www.w3.org/2000/svg" width="621.373" height="523.207" viewBox="0 0 621.373 523.207"><g transform="translate(0.004 0.951)"><g transform="translate(-0.004 0.256)"><path d="M258.59,632.614l14.173,33.342,5.9-3.678L263.988,627.75" transform="translate(-99.239 -159.588)" fill="#f96440"/><path d="M266.5,636.55l6.464,15.22-6.347,2.619L261.1,641.422Z" transform="translate(-100.202 -161.823)" fill="#463e3b" opacity="0.2"/><path d="M278.77,662.449l-8.849,5.514L254.99,632.837l2.952-1.843,13.409,31.559,2.952-1.843-13.92-32.738,2.952-1.843Z" transform="translate(-97.857 -159.177)" fill="#314e5d"/><path d="M147.092,520.063,283.727,434.9c11.264-7.019,15.695-23.764,9.9-37.4L173.4,114.7c-5.8-13.637-19.628-19-30.891-11.982L5.873,187.863c-3.978,2.481-5.542,8.4-3.494,13.213l133.8,314.757c2.049,4.817,6.935,6.71,10.913,4.23Z" transform="translate(-0.565 -25.49)" fill="#e8f0f9"/><path d="M143.365,104.32,6.731,189.455a10,10,0,0,0-4.351,7.707,8.337,8.337,0,0,1,1.935-1.679l136.634-85.143c11.263-7.02,25.094-1.655,30.891,11.982L292.065,405.148a32.987,32.987,0,0,1,1.282,21.733,32.831,32.831,0,0,0,1.134-27.754L174.256,116.3c-5.8-13.637-19.628-19-30.891-11.982Z" transform="translate(-0.911 -25.896)" fill="#fff"/><path d="M13.513,214.82,9.9,217.058c-3.976,2.492-5.53,8.415-3.469,13.228L140.2,545.043c2.047,4.819,6.933,6.717,10.913,4.238l3.611-2.238Z" transform="translate(-2.117 -54.738)" fill="#bcd9ea"/><path d="M284.692,436.424,148.027,521.559c-4.8,2.981-10.679.7-13.15-5.1L1.077,201.707C-1.385,195.9.5,188.777,5.292,185.785l136.634-85.143c12.084-7.489,26.895-1.738,33.128,12.862L295.279,396.329C301.461,410.945,296.731,428.861,284.692,436.424ZM6.814,189.359c-3.163,1.976-4.406,6.68-2.779,10.512l133.794,314.75c1.632,3.829,5.517,5.335,8.683,3.365l136.634-85.158c10.436-6.523,14.543-22.041,9.182-34.693L172.1,115.333c-5.387-12.635-18.2-17.608-28.654-11.117Z" transform="translate(0.004 -24.912)" fill="#314e5d"/><path d="M236.018,271.473l-16.5-19.816-26.553-31.895h0l-.585-.7a5.089,5.089,0,0,0-8.153.037l-.579.709h0l-81.828,99.87h0l-.579.746a8.062,8.062,0,0,0,.031,9.871l21.82,26.21,21.235,25.464h0l.616.7a5.089,5.089,0,0,0,8.153-.037L236.08,281.307A8.065,8.065,0,0,0,236.018,271.473Z" transform="translate(-38.209 -55.301)" fill="#463e3b" opacity="0.2"/><path d="M3.993-.381,136.7-13.05a3.252,3.252,0,0,1,3.612,3.745L133.5,64.456a5.117,5.117,0,0,1-4.374,4.508L-3.584,81.633A3.252,3.252,0,0,1-7.2,77.888L-.381,4.126A5.117,5.117,0,0,1,3.993-.381Z" transform="translate(58.348 255.531) rotate(-40.04)" fill="#fff"/><g transform="translate(62.179 260.967)" opacity="0.2"><path d="M171.722,384.084l-22.634,23.039a5.871,5.871,0,0,1-4.82,1.85,6.322,6.322,0,0,1-4.485-2.827L101.3,350.7a5.649,5.649,0,0,1-.4-.657c7.764,1.97,16.194,1.806,24.15,1.186,4.233-.336,8.5-.746,12.706-.134,10.975,1.612,20.576,10.177,27.36,20.726a95.433,95.433,0,0,1,6.606,12.266Z" transform="translate(-100.9 -350.04)" fill="#ded6d3"/></g><path d="M146.182,374.56c-3.085,1.9-6.847.975-9.071-2.238L97.563,315.343a10.354,10.354,0,0,1,.906-12.683l90.245-91.805a6.59,6.59,0,0,1,5.427-2.1,7.1,7.1,0,0,1,5.049,3.2l39.549,56.971a10.354,10.354,0,0,1-.906,12.683l-90.258,91.813a7.6,7.6,0,0,1-1.393,1.141ZM191.61,213.339a4.137,4.137,0,0,0-.764.619l-90.239,91.8a5.727,5.727,0,0,0-.5,7.006l39.574,56.971a3.639,3.639,0,0,0,5.786.6l90.215-91.82a5.727,5.727,0,0,0,.5-7.006L196.632,214.54a3.643,3.643,0,0,0-5.022-1.224Z" transform="translate(-36.77 -53.189)" fill="#314e5d"/><path d="M189.7,126.334c-1.882-4.429-6.374-6.173-10.032-3.895l-5.441,3.395c-3.178,2-4.731,6.451-3.7,10.6a10.454,10.454,0,0,0,.807,3.611L309.767,465.741a8.032,8.032,0,0,0,4.362,4.472,6.292,6.292,0,0,0,5.7-.585l5.441-3.395c3.565-3.355,4.767-9.231,2.909-14.213Z" transform="translate(-65.322 -31.027)" fill="#463e3b" opacity="0.2"/><path d="M57.361-.674l5.533-.454c4.531-.372,7.9,3.43,7.53,8.492l-25.87,352c-.372,5.062-4.346,9.467-8.877,9.84l-5.533.454c-4.531.372-7.9-3.43-7.53-8.492l25.87-352C48.856,4.1,52.83-.3,57.361-.674Z" transform="matrix(0.889, -0.458, 0.458, 0.889, 63.976, 116.58)" fill="#938d35"/><path d="M194.094,118.51l144.485,339.9a1.885,1.885,0,0,1-.222.149l-2.724,1.7L191.13,120.316,193.4,118.9Q193.737,118.689,194.094,118.51Z" transform="translate(-73.349 -30.283)" fill="#dae23b"/><path d="M28.37,0l1.152-.095L2.3,370.251l-1.152.095Z" transform="matrix(0.889, -0.458, 0.458, 0.889, 85.348, 105.064)" fill="#463e3b"/><path d="M28.37,0l1.152-.095L2.3,370.251l-1.152.095Z" transform="matrix(0.889, -0.458, 0.458, 0.889, 88.8, 104.418)" fill="#463e3b"/><path d="M28.37,0l1.152-.095L2.3,370.251l-1.152.095Z" transform="matrix(0.889, -0.458, 0.458, 0.889, 91.745, 102.577)" fill="#463e3b"/><path d="M28.37,0l1.152-.095L2.3,370.251l-1.152.095Z" transform="matrix(0.889, -0.458, 0.458, 0.889, 94.699, 100.742)" fill="#463e3b"/><path d="M28.37,0l1.152-.095L2.3,370.251l-1.152.095Z" transform="matrix(0.889, -0.458, 0.458, 0.889, 97.653, 98.907)" fill="#463e3b"/><path d="M333.1,459.926l-5.441,3.395c-4.472,2.78-9.959.65-12.263-4.76L176.922,132.866c-2.3-5.415-.537-12.058,3.931-14.847l5.441-3.395c4.472-2.78,9.959-.65,12.263,4.76L337,445.109c2.284,5.4.542,12.015-3.9,14.817ZM182.37,121.593c-2.831,1.771-3.949,5.978-2.5,9.416L318.314,456.726c1.465,3.438,4.953,4.79,7.8,3.022l5.441-3.395c2.84-1.774,3.956-6,2.5-9.438L195.606,121.22c-1.465-3.438-4.953-4.79-7.8-3.022Z" transform="translate(-67.51 -28.987)" fill="#314e5d"/><rect width="311.321" height="515.207" rx="25.33" transform="translate(199.424 2.181)" fill="#1dcdff"/><path d="M634.941,435.39v161.9c0,17.041-6.674,30.85-14.906,30.85H338.526c-8.233,0-14.906-13.81-14.906-30.85V503.649c18.98,25.8,40.584,43.206,62.744,54.016,26.756,13.071,54.381,16.884,81.865,17.443,32.857.679,66.281-3.41,97.215-26.307C593.808,527.8,620.1,489.2,634.941,435.39Z" transform="translate(-124.196 -110.745)" fill="#1ab5e1"/><path d="M436.351,3.736c-29.326,10.184-70.064.358-95.379,37.782C328.957,59.267,326,93.676,324.07,122.139l.037-79.667c0-10.206.166-21.345,3.358-29.1C331.422,3.728,338.323,2.99,344.411,3,374.323,3.049,407.026-3.665,436.351,3.736Z" transform="translate(-124.369 -0.256)" fill="#4ed9ff"/><rect width="311.321" height="515.207" rx="25.33" transform="translate(199.128 2.793)" fill="none" stroke="#314e5d" stroke-miterlimit="10" stroke-width="8"/><rect width="252.761" height="443.613" rx="15.86" transform="translate(228.861 36.136)" fill="#fff"/><path d="M623.655,61.5v86.128H370.9V61.5c0-6.61,3.617-11.937,8.085-11.937H615.6C620.038,49.53,623.655,54.887,623.655,61.5Z" transform="translate(-142.341 -12.775)" fill="#ea4583"/><rect width="252.761" height="446.821" rx="15.86" transform="translate(228.559 35.397)" fill="none" stroke="#314e5d" stroke-miterlimit="10" stroke-width="8"/><rect width="165.11" height="17.279" transform="translate(272.175 94.136)" fill="#fff"/><rect width="80.78" height="4.111" transform="translate(347.81 222.872) rotate(180)" fill="#afe6ff"/><rect width="175.808" height="4.111" transform="translate(442.843 231.915) rotate(180)" fill="#afe6ff"/><rect width="80.78" height="4.111" transform="translate(347.81 240.957) rotate(180)" fill="#afe6ff"/><rect width="175.808" height="4.111" transform="translate(442.843 249.992) rotate(180)" fill="#afe6ff"/><rect width="80.78" height="4.111" transform="translate(347.81 259.042) rotate(180)" fill="#afe6ff"/><rect width="175.808" height="4.111" transform="translate(442.843 268.078) rotate(180)" fill="#afe6ff"/><rect width="60.642" height="8.64" transform="translate(469.088 63.8) rotate(180)" fill="#eea248"/><rect width="60.642" height="8.64" transform="translate(400.083 63.8) rotate(180)" fill="#eea248"/><ellipse cx="6.877" cy="8.326" rx="6.877" ry="8.326" transform="translate(240.791 51.154)" fill="#eea248"/><ellipse cx="15.288" cy="18.51" rx="15.288" ry="18.51" transform="translate(275.946 158.366)" fill="#ea4583"/><rect width="29.049" height="35.17" rx="14.524" transform="translate(404.878 160.216)" fill="#958fee"/><path d="M564.588,218.016a2.281,2.281,0,0,1,4.314,0l6.68,14,6.68,14a3.536,3.536,0,0,1,0,2.993,2.42,2.42,0,0,1-2.147,1.484H553.385a2.42,2.42,0,0,1-2.147-1.484,3.536,3.536,0,0,1,0-2.993l6.68-14Z" transform="translate(-211.423 -55.158)" fill="#eea248"/><path d="M13.559.892,60.075,3.953c7.488.493,13.959,7.923,14.451,16.6L94.9,379.169c.493,8.673-5.178,15.3-12.667,14.811L35.72,390.919c-7.488-.493-13.959-7.923-14.451-16.6L.892,15.7C.4,7.031,6.071.4,13.559.892Z" transform="matrix(0.94, 0.34, -0.34, 0.94, 532.431, 108.412)" fill="#e8f0f9"/><path d="M883.122,175.532l-9.989-4.312c5.289,2.287,8.047,9.33,6.162,15.735L775.7,538.688c-1.889,6.4-7.706,9.743-13,7.461l9.989,4.312c5.29,2.282,11.107-1.057,13-7.461l103.6-351.71a14.717,14.717,0,0,0-.383-9.426,11.167,11.167,0,0,0-5.78-6.332Z" transform="translate(-292.706 -43.667)" fill="#bcd9ea"/><path d="M917.332,169.623l-48.54-20.957c-5.29-2.282-11.108,1.057-13,7.461l-3.956,13.429c1.889-6.4,7.706-9.743,13-7.461l48.54,20.957c5.289,2.287,8.047,9.33,6.162,15.735l3.956-13.429c1.885-6.405-.873-13.448-6.162-15.735Z" transform="translate(-326.916 -37.758)" fill="#463e3b" opacity="0.2"/><path d="M0,0,4.2-.236,3.413,11.826l-4.2.236Z" transform="translate(578.305 163.01) rotate(-70.37)" fill="#314e5d"/><path d="M0,0,4.2-.236,3.413,11.826l-4.2.236Z" transform="translate(575.135 173.763) rotate(-70.37)" fill="#314e5d"/><path d="M0,0,4.2-.236,3.413,11.826l-4.2.236Z" transform="translate(571.966 184.513) rotate(-70.37)" fill="#314e5d"/><path d="M0,0,4.2-.238,2.608,23.9l-4.2.238Z" transform="matrix(0.34, -0.94, 0.94, 0.34, 559.729, 192.486)" fill="#314e5d"/><path d="M0,0,4.2-.236,3.413,11.826l-4.2.236Z" transform="translate(567.477 203.995) rotate(-70.37)" fill="#314e5d"/><path d="M0,0,4.2-.236,3.413,11.826l-4.2.236Z" transform="translate(564.314 214.747) rotate(-70.37)" fill="#314e5d"/><path d="M0,0,4.2-.236,3.413,11.826l-4.2.236Z" transform="translate(561.15 225.5) rotate(-70.37)" fill="#314e5d"/><path d="M0,0,4.2-.238,2.608,23.9l-4.2.238Z" transform="matrix(0.34, -0.94, 0.94, 0.34, 548.8, 233.612)" fill="#314e5d"/><path d="M0,0,4.2-.236,3.413,11.826l-4.2.236Z" transform="translate(556.656 244.979) rotate(-70.37)" fill="#314e5d"/><path d="M0,0,4.2-.236,3.413,11.826l-4.2.236Z" transform="translate(553.492 255.731) rotate(-70.37)" fill="#314e5d"/><path d="M0,0,4.2-.236,3.413,11.826l-4.2.236Z" transform="translate(550.322 266.484) rotate(-70.37)" fill="#314e5d"/><path d="M0,0,4.2-.236,2.627,23.889l-4.2.236Z" transform="translate(536.059 272.437) rotate(-70.37)" fill="#314e5d"/><path d="M0,0,4.2-.236,3.413,11.826l-4.2.236Z" transform="translate(543.619 285.009) rotate(-70.37)" fill="#314e5d"/><path d="M0,0,4.2-.236,3.413,11.826l-4.2.236Z" transform="translate(540.448 295.761) rotate(-70.37)" fill="#314e5d"/><path d="M0,0,4.2-.236,3.413,11.826l-4.2.236Z" transform="translate(537.285 306.506) rotate(-70.37)" fill="#314e5d"/><path d="M0,0,4.2-.238,2.608,23.9l-4.2.238Z" transform="matrix(0.34, -0.94, 0.94, 0.34, 524.716, 314.91)" fill="#314e5d"/><path d="M0,0,4.2-.236,3.413,11.826l-4.2.236Z" transform="translate(531.681 325.515) rotate(-70.37)" fill="#314e5d"/><path d="M0,0,4.2-.236,3.413,11.826l-4.2.236Z" transform="translate(528.519 336.261) rotate(-70.37)" fill="#314e5d"/><path d="M0,0,4.2-.236,3.413,11.826l-4.2.236Z" transform="translate(525.349 347.013) rotate(-70.37)" fill="#314e5d"/><path d="M0,0,4.2-.238,2.608,23.9l-4.2.238Z" transform="matrix(0.34, -0.94, 0.94, 0.34, 512.675, 355.547)" fill="#314e5d"/><path d="M0,0,4.2-.236,3.413,11.826l-4.2.236Z" transform="translate(520.859 366.499) rotate(-70.37)" fill="#314e5d"/><path d="M0,0,4.2-.236,3.413,11.826l-4.2.236Z" transform="translate(517.695 377.252) rotate(-70.37)" fill="#314e5d"/><path d="M0,0,4.2-.236,3.413,11.826l-4.2.236Z" transform="translate(514.527 387.998) rotate(-70.37)" fill="#314e5d"/><path d="M0,0,4.2-.238,2.608,23.9l-4.2.238Z" transform="matrix(0.34, -0.94, 0.94, 0.34, 501.74, 396.673)" fill="#314e5d"/><path d="M0,0,4.2-.236,3.413,11.826l-4.2.236Z" transform="translate(508.929 407.006) rotate(-70.37)" fill="#314e5d"/><path d="M0,0,4.2-.236,3.413,11.826l-4.2.236Z" transform="translate(505.759 417.759) rotate(-70.37)" fill="#314e5d"/><path d="M0,0,4.2-.236,3.413,11.826l-4.2.236Z" transform="translate(502.596 428.512) rotate(-70.37)" fill="#314e5d"/><path d="M0,0,4.2-.236,2.627,23.889l-4.2.236Z" transform="translate(488.333 434.465) rotate(-70.37)" fill="#314e5d"/><path d="M0,0,4.2-.236,3.413,11.826l-4.2.236Z" transform="translate(497 447.516) rotate(-70.37)" fill="#314e5d"/><path d="M0,0,4.2-.236,3.413,11.826l-4.2.236Z" transform="translate(493.83 458.266) rotate(-70.37)" fill="#314e5d"/><path d="M0,0,4.2-.236,3.413,11.826l-4.2.236Z" transform="translate(490.66 469.011) rotate(-70.37)" fill="#314e5d"/><path d="M0,0,4.2-.236,2.627,23.889l-4.2.236Z" transform="translate(476.397 474.972) rotate(-70.37)" fill="#314e5d"/><path d="M0,24.175,387.429,2.41l-.157,2.41L-.157,26.585Z" transform="translate(417.806 480.158) rotate(-70.37)" fill="#fff"/><path d="M692.168,520.99l-3.328-1.44L796.9,152.7c.656-2.226,2.677-3.388,4.517-2.6h0Z" transform="translate(-264.36 -38.242)" fill="#fff"/><path d="M0,25.308,386.025,3.621l-.236,3.621L-.236,28.929Z" transform="translate(403.978 474.267) rotate(-70.37)" fill="#fff"/><path d="M0,25.308,386.025,3.621l-.236,3.621L-.236,28.929Z" transform="translate(407.303 475.699) rotate(-70.37)" fill="#fff"/><path d="M6.29-.353c3.474-.2,6.132,2.076,5.937,5.072S9.058,10.3,5.584,10.5-.549,8.422-.353,5.426,2.816-.158,6.29-.353Z" transform="translate(454.648 482.997) rotate(-70.37)" fill="#fff"/><path d="M741.991,647.542c-3.676-1.581-5.6-6.469-4.3-10.921s5.337-6.785,9.016-5.212,5.609,6.455,4.314,10.91S745.677,649.12,741.991,647.542Zm3.562-12.086c-1.84-.795-3.864.368-4.52,2.6s.3,4.678,2.146,5.472,3.864-.37,4.519-2.6-.306-4.675-2.144-5.469Z" transform="translate(-282.954 -160.393)" fill="#314e5d"/><path d="M6.29-.353c3.474-.2,6.132,2.076,5.937,5.072S9.058,10.3,5.584,10.5-.549,8.422-.353,5.426,2.816-.158,6.29-.353Z" transform="translate(554.083 141.185) rotate(-70.37)" fill="#fff"/><path d="M903.341,189.412c-3.676-1.581-5.6-6.469-4.3-10.921s5.337-6.785,9.016-5.212,5.609,6.455,4.314,10.91S907.026,190.989,903.341,189.412Zm3.562-12.094c-1.84-.795-3.864.368-4.52,2.6s.3,4.678,2.146,5.472,3.864-.371,4.519-2.6-.306-4.675-2.145-5.469Z" transform="translate(-344.876 -44.065)" fill="#314e5d"/><path d="M744.662,547.55,692.9,525.168c-5.317-2.307-8.089-9.388-6.2-15.832l104.757-355.6c1.906-6.437,7.754-9.794,13.076-7.506L856.3,168.608c5.317,2.307,8.089,9.388,6.2,15.832l-104.757,355.6C755.832,546.482,749.984,549.839,744.662,547.55Zm58.683-397.259c-3.485-1.5-7.315.7-8.559,4.917l-104.757,355.6c-1.226,4.215.592,8.837,4.067,10.341l51.763,22.382c3.485,1.5,7.315-.7,8.559-4.917l104.757-355.6c1.239-4.219-.578-8.856-4.061-10.363Z" transform="translate(-263.311 -37.138)" fill="#314e5d"/><path d="M856.8,315.788a73.9,73.9,0,0,1,2.637-16.623,40.466,40.466,0,0,1,5.293-12.124,17.6,17.6,0,0,1,9.57-7.4l.247,1.4a16.442,16.442,0,0,0-8.911,6.924,38.99,38.99,0,0,0-5.084,11.669,72.224,72.224,0,0,0-2.576,16.242Z" transform="translate(-328.82 -71.197)" opacity="0.1"/><path d="M794.751,329.494a15.348,15.348,0,0,1-2.391-1.3l.567-1.253c7.851,5.223,18.7,1.559,23.213-7.789a36.752,36.752,0,0,0,2.927-10.445,52.448,52.448,0,0,0-.284-19.861c-1.6-6.827-5.09-12.445-9.57-15.414l.567-1.253c4.757,3.148,8.454,9.08,10.137,16.28a54.09,54.09,0,0,1,.308,20.51,37.8,37.8,0,0,1-3.081,10.915C812.775,328.9,802.823,332.941,794.751,329.494Z" transform="translate(-304.089 -69.303)" opacity="0.1"/><path d="M799.77,317.456l.111-1.418c4.757.56,9.582-3.924,10.753-9.99a19.284,19.284,0,0,0-4.837-16.257l.77-1.082a20.869,20.869,0,0,1,5.219,17.667C810.486,313.107,805.1,318.083,799.77,317.456Z" transform="translate(-306.933 -73.5)" opacity="0.1"/><path d="M725.726,519.388a9.172,9.172,0,0,1-2.366-1.492l.684-1.164a8.26,8.26,0,0,0,8.233,1.455c6.871-2.134,14.21-10.826,18.7-22.144a119.259,119.259,0,0,0,5.435-18.951c2.822-13.146,4.11-24.621,3.827-34.036-.333-11.191-2.964-19.741-7.216-23.412l.684-1.164c4.554,3.932,7.358,12.87,7.709,24.524.283,9.58-1.017,21.166-3.864,34.447a121.27,121.27,0,0,1-5.509,19.212c-4.64,11.676-12.269,20.689-19.472,22.927a9.692,9.692,0,0,1-6.846-.2Z" transform="translate(-277.608 -106.451)" opacity="0.1"/><path d="M736.632,499.028l-.092-1.425c5.059-.492,11.5-10.042,14.056-20.89,2.379-10.057,1.621-20.793-1.886-26.717l.955-.836c3.765,6.357,4.572,17.324,2.064,27.941C749,488.65,742.228,498.469,736.632,499.028Z" transform="translate(-282.667 -114.241)" opacity="0.1"/><path d="M861.274,442c-4.757-3.148-8.454-9.08-10.137-16.28a54.087,54.087,0,0,1-.308-20.51,37.8,37.8,0,0,1,3.081-10.915c4.825-9.983,16.41-13.877,24.8-8.319l-.567,1.253c-7.844-5.223-18.7-1.559-23.213,7.789A36.752,36.752,0,0,0,852,405.462a52.445,52.445,0,0,0,.283,19.861c1.6,6.827,5.09,12.445,9.57,15.414Z" transform="translate(-326.214 -97.551)" opacity="0.1"/><path d="M874.668,435.546a20.869,20.869,0,0,1-5.219-17.667c1.3-6.715,6.686-11.714,12.016-11.087l-.111,1.418c-4.757-.56-9.582,3.924-10.753,9.99a19.284,19.284,0,0,0,4.837,16.257Z" transform="translate(-333.551 -103.47)" opacity="0.1"/><path d="M789.379,622.274c-6.723-4.477-11.949-12.84-14.333-23.017-1.972-8.423-2.12-18.212-.431-29.1a55.223,55.223,0,0,1,4.314-15.459c6.815-14.094,23.17-19.585,35.007-11.743l-.567,1.253c-11.3-7.461-26.917-2.238-33.424,11.191a52.644,52.644,0,0,0-4.2,15c-1.651,10.661-1.516,20.234.407,28.441,2.3,9.811,7.315,17.906,13.76,22.151Z" transform="translate(-296.831 -137.147)" opacity="0.1"/><path d="M808.5,613.119a29.513,29.513,0,0,1-7.358-24.882c1.849-9.46,9.385-16.414,16.86-15.571l-.111,1.418c-6.908-.813-13.9,5.685-15.6,14.474a27.773,27.773,0,0,0,6.976,23.472Z" transform="translate(-307.286 -145.584)" opacity="0.1"/><path d="M0,24.443,370.643,3.621l-.236,3.621L-.236,28.065Z" transform="translate(413.27 469.125) rotate(-70.37)" fill="#314e5d"/><path d="M795.876,470.724c-1.362-4.536-3.081-10.177-2.939-15.892a51.83,51.83,0,0,1,2.4-12.915c.616-2.343,1.3-4.76,1.756-7.17,2.428-13.81-1.5-28.131-10.26-37.446l.764-1.082c9.091,9.665,13.161,24.522,10.642,38.849-.468,2.477-1.134,4.932-1.787,7.3-1.109,4.051-2.249,8.207-2.335,12.5-.111,5.439,1.541,10.945,2.865,15.369Z" transform="translate(-301.967 -100.799)" opacity="0.1"/><path d="M867.936,234.524c-1.362-4.536-3.081-10.177-2.939-15.892a51.827,51.827,0,0,1,2.4-12.915c.616-2.343,1.3-4.76,1.756-7.17,2.428-13.81-1.5-28.131-10.26-37.446l.764-1.082c9.091,9.665,13.161,24.522,10.642,38.848-.468,2.477-1.134,4.932-1.787,7.3-1.109,4.051-2.249,8.207-2.335,12.5-.111,5.439,1.541,10.945,2.865,15.369Z" transform="translate(-329.622 -40.823)" opacity="0.1"/><path d="M921.586,271.934c-1.362-4.536-3.081-10.177-2.939-15.892a51.825,51.825,0,0,1,2.4-12.915c.616-2.343,1.3-4.76,1.756-7.17,2.428-13.81-1.5-28.131-10.26-37.446l.764-1.082c9.091,9.665,13.161,24.522,10.642,38.848-.468,2.477-1.134,4.932-1.787,7.3-1.109,4.051-2.249,8.207-2.335,12.5-.111,5.439,1.541,10.945,2.865,15.369Z" transform="translate(-350.212 -50.322)" opacity="0.1"/><path d="M722.492,637.173l-.992-.746c2.237-4.26,2-9.7,1.762-14.922-.062-1.365-.123-2.731-.142-4.074a122.682,122.682,0,0,1,.82-13.728c.869-8.744,1.695-17.011-.943-24.71-1.9-5.558-5.546-10.154-8.787-14.019l.826-1.015c3.334,3.962,7.062,8.684,9.052,14.489,2.761,8.05,1.849,16.884,1.029,25.426a121.213,121.213,0,0,0-.844,13.519c0,1.321.08,2.664.136,4.014C724.68,626.877,724.932,632.525,722.492,637.173Z" transform="translate(-274.097 -143.391)" opacity="0.1"/></g></g></svg>